<?xml version="1.0" standalone="no"?>
<!DOCTYPE svg PUBLIC "-//W3C//DTD SVG 20010904//EN"
 "http://www.w3.org/TR/2001/REC-SVG-20010904/DTD/svg10.dtd">
<svg version="1.0" xmlns="http://www.w3.org/2000/svg"
 width="620.000000pt" height="620.000000pt" viewBox="0 0 620.000000 620.000000"
 preserveAspectRatio="xMidYMid meet">
<metadata>
Created by potrace 1.14, written by Peter Selinger 2001-2017
</metadata>
<g transform="translate(0.000000,620.000000) scale(0.100000,-0.100000)"
fill="#000000" stroke="none">
<path d="M1750 3892 l0 -947 263 0 c144 -1 264 2 267 6 3 4 5 190 5 413 -1
223 0 406 2 406 2 0 229 -202 343 -304 19 -18 60 -54 90 -81 30 -26 90 -80
134 -119 43 -39 82 -72 87 -74 5 -2 9 -9 9 -15 0 -10 -70 -124 -120 -197 -17
-25 -367 -561 -586 -898 -54 -84 -138 -212 -185 -285 l-86 -132 850 -3 c468
-1 852 0 855 2 2 3 -35 64 -82 136 -47 72 -86 135 -86 140 0 4 -4 10 -8 12 -4
2 -32 42 -62 90 -30 48 -61 88 -70 90 -8 2 -128 3 -266 2 l-251 0 46 73 c25
41 53 85 61 98 81 132 233 365 238 365 7 0 72 -96 72 -105 0 -3 5 -11 11 -18
11 -13 104 -154 304 -462 71 -110 133 -201 137 -203 5 -2 8 -8 8 -13 0 -6 19
-38 43 -72 23 -34 44 -66 47 -72 8 -15 221 -339 229 -348 4 -4 28 12 53 35 71
68 258 241 287 265 l26 23 -20 32 c-10 18 -66 105 -123 192 -151 231 -157 240
-162 251 -12 23 -66 100 -72 103 -5 2 -8 8 -8 14 0 5 -24 47 -54 91 -29 45
-79 123 -111 172 -66 102 -128 198 -241 370 l-78 120 -1 248 c0 136 2 247 5
247 3 0 26 -18 50 -41 67 -61 206 -186 284 -254 37 -33 78 -69 90 -80 144
-130 192 -172 208 -184 21 -14 20 -15 108 69 15 14 58 52 95 85 122 107 155
138 155 146 0 5 -14 21 -31 36 -18 16 -37 33 -43 38 -150 134 -211 189 -256
231 -30 28 -77 71 -105 95 -60 53 -76 72 -65 79 4 3 38 32 76 65 37 33 93 82
123 109 31 27 72 63 91 80 19 17 77 67 128 110 50 44 92 87 93 95 4 71 3 621
-1 621 -6 0 -16 -9 -146 -126 -43 -39 -97 -87 -119 -105 -22 -19 -58 -50 -79
-69 -62 -57 -79 -72 -147 -131 -35 -31 -76 -67 -90 -80 -14 -13 -54 -49 -90
-80 -35 -31 -76 -67 -90 -80 -26 -25 -138 -124 -199 -178 -19 -17 -37 -31 -40
-31 -3 0 -5 123 -5 273 l0 272 -290 2 -290 1 -5 -365 -5 -365 -21 19 c-11 10
-49 43 -84 73 -35 30 -73 64 -84 75 -12 11 -55 49 -96 85 -41 36 -81 72 -90
80 -35 33 -109 98 -185 165 -44 38 -85 74 -91 80 -49 44 -101 90 -169 150 -44
39 -89 79 -101 90 -12 11 -32 29 -45 40 -32 27 -200 176 -217 192 -7 7 -15 13
-18 13 -2 0 -4 -426 -4 -948z"/>
</g>
</svg>
